<?xml version="1.0" standalone="yes"?>
<svg xmlns="http://www.w3.org/2000/svg" width="303" height="264">
<path style="fill:#000000; stroke:none;" d="M0 0L0 264L303 264L303 0L0 0z"/>
<path style="fill:#7f7f7f; stroke:none;" d="M3 2L3 130L4 130L36.2184 73L58 36L58 224C35.7509 197.831 22.9034 162.659 4 134L3 134L3 261L50 261C55.2864 261 64.0977 262.667 68.8148 259.972C76.4018 255.637 82.0914 239.462 86.4244 232C100.189 208.296 113.86 184.506 127.95 161C132.424 153.535 145.063 138.987 143.563 130C141.812 119.507 131.525 107.218 126.281 98C114.535 77.3524 102.922 56.634 91.1505 36C85.0635 25.3299 76.4705 13.7984 73 2L3 2z"/>
<path style="fill:#ffffff; stroke:none;" d="M73 2C75.0348 13.2756 84.3413 25.0972 90.0008 35C102.17 56.2931 114.155 77.6837 126.281 99C131.134 107.532 142.719 121.163 143.393 131C144.06 140.749 129.721 156.6 125.011 165C106.896 197.308 86.9616 228.609 69 261L180 261L211 261C214.853 261 220.339 261.958 223.815 259.972C228.31 257.404 230.832 250.282 233.4 246C240.764 233.719 247.832 221.28 255.2 209C265.749 191.417 276.13 173.728 286.424 156C290.195 149.507 298.275 140.613 299.076 133C299.954 124.668 287.381 109.212 283.281 102C269.862 78.3944 256.377 54.7993 243.306 31C239.227 23.5752 233.819 7.60583 226.61 3.02777C223.361 0.9646 217.679 2 214 2L185 2L73 2z"/>
<path style="fill:#7f7f7f; stroke:none;" d="M227 2L255.14 53L299 131L300 131L300 2L227 2z"/>
<path style="fill:#ffffff; stroke:none;" d="M56 36C46.1683 59.4902 30.6154 81.7764 18.1389 104C13.8367 111.663 4.56381 122.157 3.5517 131C2.75161 137.99 12.454 149.084 15.8503 155C24.702 170.419 33.8637 185.666 42.8588 201C47.2977 208.567 51.1805 218.35 58 224L58 36L56 36z"/>
<path style="fill:#7f7f7f; stroke:none;" d="M299 133L224 261L300 261L300 172C300 160.842 303.308 143.266 299 133z"/>
</svg>
