<?xml version="1.0" encoding="UTF-8" standalone="no"?>
<!-- Created with Inkscape (http://www.inkscape.org/) -->

<svg
   width="210mm"
   height="297mm"
   viewBox="0 0 210 297"
   version="1.1"
   id="svg1"
   xml:space="preserve"
   inkscape:export-filename="bitmap.svg"
   inkscape:export-xdpi="96"
   inkscape:export-ydpi="96"
   inkscape:version="1.3.1 (91b66b0783, 2023-11-16)"
   sodipodi:docname="MatryoskaRevisionists.svg"
   xmlns:inkscape="http://www.inkscape.org/namespaces/inkscape"
   xmlns:sodipodi="http://sodipodi.sourceforge.net/DTD/sodipodi-0.dtd"
   xmlns="http://www.w3.org/2000/svg"
   xmlns:svg="http://www.w3.org/2000/svg"><sodipodi:namedview
     id="namedview1"
     pagecolor="#d1d1d1"
     bordercolor="#000000"
     borderopacity="0.25"
     inkscape:showpageshadow="2"
     inkscape:pageopacity="0.0"
     inkscape:pagecheckerboard="true"
     inkscape:deskcolor="#d1d1d1"
     inkscape:document-units="mm"
     showguides="true"
     inkscape:zoom="0.70710678"
     inkscape:cx="357.79603"
     inkscape:cy="545.17933"
     inkscape:window-width="1920"
     inkscape:window-height="1009"
     inkscape:window-x="1912"
     inkscape:window-y="-8"
     inkscape:window-maximized="1"
     inkscape:current-layer="layer1" /><defs
     id="defs1" /><g
     inkscape:label="Layer 1"
     inkscape:groupmode="layer"
     id="layer1"
     style="display:inline"><path
       fill="currentColor"
       d="M 94.282415,265.8434 H 59.721625 V 162.83209 h 17.11262 v 22.81683 l 17.44817,11.74397 z M 82.873995,37.003936 71.465565,59.82079 H 14.087947 v 22.816833 l 45.633678,11.40843 v 34.560777 l 23.15237,11.40841 11.40842,34.22526 h 22.816815 l 11.40842,-34.22526 23.15237,-11.40841 V 94.046053 L 197.2937,82.637623 V 59.82079 H 139.91606 L 128.50765,37.003936 Z m 23.132435,44.946627 5.51421,5.45029 -5.47756,5.36095 -5.51458,-5.30668 z M 117.43476,265.8434 h 34.22526 V 162.83209 h -17.44815 v 22.81683 l -16.77711,11.74397 z m 79.85894,-160.38895 -22.81683,6.03974 v 74.15473 L 197.2937,174.2405 Z m -183.205753,0 22.816839,6.03974 v 74.15473 L 14.087947,174.2405 Z"
       id="path1"
       style="fill:#5a5a5a;fill-opacity:1;stroke:#000000;stroke-width:0.335543;stroke-opacity:1"
       sodipodi:nodetypes="cccccccccccccccccccccccccccccccccccccccccccccc" /><rect
       style="opacity:1;fill:#ffffff;fill-opacity:1;stroke:#000000;stroke-width:0.568697;stroke-opacity:1"
       id="rect27"
       width="6.8864865"
       height="6.8864865"
       x="9.0160313"
       y="133.41055"
       transform="rotate(-45.289916)" /></g><g
     inkscape:groupmode="layer"
     id="layer2"
     inkscape:label="Layer 2"
     style="display:inline"><path
       fill="currentColor"
       d="m -55.891136,227.00144 h -12.261906 v -36.54762 h 6.071427 v 8.09523 l 6.190479,4.16667 z m -4.047622,-81.19049 -4.047622,8.09524 h -20.357138 v 8.09525 l 16.190476,4.04762 v 12.2619 l 8.214284,4.04762 4.047622,12.14285 h 8.095235 l 4.047622,-12.14285 8.214281,-4.04762 v -12.2619 l 16.19048,-4.04762 v -8.09525 h -20.357148 l -4.047613,-8.09524 z m 15.005182,1.64591 4.157208,7.8392 20.060304,-0.0947 -0.09225,5.7647 -16.118392,4.25285 0.01069,11.92867 -8.026977,3.96922 -3.978234,11.89125 -5.81077,-0.008 -4.010986,-11.98284 -7.979391,-3.98753 0.01611,-12.09313 -16.401631,-4.16516 0.0082,-5.52776 20.165726,0.2973 3.96393,-8.13421 z m -2.743279,79.54458 h 12.142857 v -36.54762 h -6.19047 v 8.09523 l -5.952387,4.16667 z m 28.333337,-56.90477 -8.095235,2.14286 v 26.30952 l 8.095235,-4.04762 z m -65,0 8.095239,2.14286 v 26.30952 l -8.095239,-4.04762 z"
       id="path3"
       style="display:none;opacity:1;fill:#ffffff;fill-opacity:1;stroke-width:0.119048"
       sodipodi:nodetypes="cccccccccccccccccccccccccccccccccccccccccccccccccccccccccc" /><path
       style="fill:#ffffff;stroke-width:2.53638"
       d="m 95.042385,163.7456 -0.60647,-1.63031 -4.52791,-13.68615 -4.52789,-13.68612 -10.60349,-5.26411 -10.60349,-5.2641 V 108.71579 93.216763 l -17.716602,-4.41813 -17.716603,-4.41812 -2.684333,-0.70939 -2.684335,-0.70939 v -9.99392 -9.993922 h 25.772753 25.77275 l 5.17512,-10.379426 5.17512,-10.379423 h 20.423825 20.4238 l 5.17513,10.379423 5.17512,10.379426 h 25.77275 25.77275 v 9.993922 9.99392 l -2.68433,0.70939 -2.68432,0.70939 -17.7166,4.41812 -17.71661,4.41813 -0.001,15.479967 -10e-4,15.47996 -10.55711,5.36868 -10.55715,5.36865 -5.07927,15.03228 -5.07925,15.03228 -10.14219,0.1986 -10.142145,0.1986 z m 23.140535,-16.91531 4.93769,-14.9271 10.24012,-5.10568 10.24015,-5.10566 0.19327,-15.14604 0.19327,-15.146037 11.45315,-3.04286 11.45317,-3.04285 8.76881,-2.31419 8.76882,-2.31419 v -7.424249 -7.424256 h -25.3508 -25.35079 l -5.25061,-9.842555 -5.25061,-9.842559 -17.71351,-0.191445 -17.713515,-0.191446 -5.19279,10.484936 -5.1929,10.484922 -25.59064,-0.492385 -25.590654,-0.492382 v 7.186042 7.186047 l 1.968512,0.48712 1.968511,0.48712 18.611381,4.72979 18.61138,4.72979 0.19246,15.394797 0.19246,15.3948 10.18696,5.08293 10.18695,5.08295 4.99162,15.12086 4.99161,15.12087 h 7.554405 7.5544 z"
       id="path9" /><path
       style="fill:#ffffff;stroke-width:2.53638"
       d="m 15.560115,168.90398 v -61.70386 l 20.043022,5.4286 v 66.30679 z m 17.179732,-53.39812 -14.316445,-3.71993 v 54.6582 l 14.316445,6.76457 z"
       id="path5"
       sodipodi:nodetypes="cccccccccc" /><path
       style="fill:#ffffff;stroke-width:2.53638"
       d="m 60.282805,166.26009 h 15.74809 v 10.34647 10.34647 l 15.39017,10.44534 0.37336,61.2028 h -31.51155 z m 27.91707,32.95985 -14.84254,-9.95825 -0.90555,-2.35985 v -8.53131 -8.53134 h -8.58987 v 85.89869 h 24.33796 z"
       id="path8"
       sodipodi:nodetypes="ccccccccccccccccc" /><path
       style="fill:#ffffff;stroke-width:1.95373"
       d="m 97.488485,145.00067 -0.46715,-1.25579 -3.48777,-10.5422 -3.48777,-10.5422 -8.1677,-4.05486 -8.1677,-4.05485 V 102.61212 90.673463 l -13.64681,-3.40321 -13.646825,-3.40321 -2.067699,-0.54643 -2.067699,-0.54643 V 75.07602 67.377863 h 19.852343 19.85234 l 3.98631,-7.995106 3.98632,-7.995106 h 15.732155 15.73214 l 3.98629,7.995106 3.98635,7.995106 h 19.85231 19.85236 v 7.698157 7.698163 l -2.0677,0.54643 -2.06771,0.54643 -13.64681,3.40321 -13.6468,3.40321 -9.4e-4,11.923977 -0.001,11.92397 -8.13196,4.1354 -8.13201,4.13539 -3.91249,11.5791 -3.91247,11.57914 -7.81237,0.1532 -7.812335,0.1532 z m 17.824805,-13.02959 3.80345,-11.49808 7.88778,-3.93282 7.88781,-3.9328 0.14863,-11.66676 0.14863,-11.666757 8.82218,-2.34386 8.82221,-2.34386 6.75448,-1.78258 6.75448,-1.78258 v -5.718789 -5.718788 h -19.52733 -19.52732 l -4.04443,-7.581562 -4.04449,-7.581567 -13.64442,-0.14749 -13.644455,-0.147465 -3.99993,8.076379 -4,8.076369 -19.71207,-0.379275 -19.712074,-0.379277 v 5.535295 5.5353 l 1.516316,0.37522 1.51631,0.37522 14.336048,3.64328 14.33605,3.64328 0.14825,11.858367 0.14826,11.85838 7.84685,3.91529 7.84685,3.91532 3.84496,11.64734 3.84496,11.64737 h 5.819045 5.81903 z"
       id="path10" /><path
       style="fill:#ffffff;stroke-width:1.36761"
       d="m 99.949205,126.25317 -0.32701,-0.87905 -2.44144,-7.37955 -2.44144,-7.37954 -5.71739,-2.8384 -5.71739,-2.83839 v -8.357057 -8.35706 l -9.55276,-2.38224 -9.55278,-2.38225 -1.44739,-0.3825 -1.44739,-0.3825 v -5.38872 -5.388706 h 13.89664 13.89664 l 2.79042,-5.596572 2.79041,-5.596575 h 11.012505 11.01249 l 2.7904,5.596575 2.79045,5.596572 h 13.89661 13.89664 v 5.388706 5.38872 l -1.44738,0.3825 -1.44739,0.3825 -9.55276,2.38225 -9.55276,2.38224 -6.6e-4,8.34678 -7.1e-4,8.346777 -5.69237,2.89479 -5.69242,2.89477 -2.73873,8.10537 -2.73873,8.1054 -5.46866,0.10724 -5.46863,0.10723 z m 12.477355,-9.12072 2.66241,-8.04865 5.52144,-2.75298 5.52144,-2.75296 0.10399,-8.166727 0.104,-8.16672 6.17555,-1.64071 6.17554,-1.6407 4.72812,-1.24781 4.72814,-1.24781 v -4.00314 -4.003156 h -13.66913 -13.66913 l -2.83108,-5.307092 -2.83115,-5.307098 -9.55109,-0.10323 -9.551105,-0.103231 -2.79995,5.653465 -2.8,5.653458 -13.79845,-0.265492 -13.79845,-0.265493 v 3.874709 3.8747 l 1.06142,0.26266 1.06142,0.26265 10.03524,2.5503 10.03523,2.5503 0.10376,8.30086 0.10379,8.300857 5.4928,2.7407 5.49279,2.74073 2.69147,8.15313 2.691455,8.15316 h 4.07334 4.07332 z"
       id="path11" /><path
       style="fill:#ffffff;stroke-width:0.781494"
       d="m 102.40997,107.34188 -0.18693,-0.50231 -1.39511,-4.21688 -1.395095,-4.216887 -3.26708,-1.62194 -3.26709,-1.62194 v -4.77546 -4.77547 l -5.45872,-1.36128 -5.45873,-1.36128 -0.82708,-0.21859 -0.82708,-0.21856 v -3.07926 -3.07926 h 7.94094 7.94094 l 1.59452,-3.198048 1.59453,-3.198043 h 6.292875 6.29285 l 1.5945,3.198043 1.59454,3.198048 h 7.94092 7.94095 v 3.07926 3.07926 l -0.82709,0.21856 -0.82706,0.21859 -5.45872,1.36128 -5.45872,1.36128 -3.8e-4,4.7696 -4e-4,4.76959 -3.25278,1.65416 -3.25283,1.65415 -1.56497,4.631647 -1.565,4.63165 -3.12494,0.0613 -3.12495,0.0613 z m 7.12994,-5.21183 1.52137,-4.599237 3.15512,-1.57313 3.15511,-1.57312 0.0593,-4.6667 0.0593,-4.6667 3.52886,-0.93755 3.52889,-0.93754 2.70178,-0.71304 2.7018,-0.71303 v -2.28751 -2.28752 h -7.81093 -7.81091 l -1.61777,-3.032622 -1.61781,-3.032628 -5.45775,-0.059 -5.4578,-0.059 -1.599965,3.230555 -1.6,3.230545 -7.88483,-0.1517 -7.88483,-0.1517 v 2.21411 2.21412 l 0.60653,0.15008 0.60652,0.15008 5.73442,1.45731 5.73442,1.45731 0.0593,4.74335 0.0593,4.74335 3.13874,1.56612 3.138735,1.56613 1.53799,4.658927 1.53799,4.65896 h 2.32763 2.32761 z"
       id="path12" /><path
       style="fill:#ffffff;stroke-width:1.57406"
       d="M 19.32201,151.33723 V 113.0443 l 12.438531,3.36894 v 41.14945 z m 10.661598,-33.13846 -8.884667,-2.30856 v 33.92045 l 8.884667,4.19803 z"
       id="path14"
       sodipodi:nodetypes="cccccccccc" /><path
       style="fill:#ffffff;stroke-width:0.979653"
       d="m 21.615162,140.7482 v -23.83257 l 7.741433,2.09674 v 25.6104 z m 6.635513,-20.62455 -5.529596,-1.43679 v 21.11122 l 5.529596,2.61277 z"
       id="path15"
       sodipodi:nodetypes="cccccccccc" /><path
       style="fill:#ffffff;stroke-width:0.616916"
       d="m 23.007431,134.46393 v -15.00801 l 4.874993,1.32037 v 16.12758 z m 4.178564,-12.98784 -3.482138,-0.90478 v 13.29431 l 3.482138,1.64534 z"
       id="path16"
       sodipodi:nodetypes="cccccccccc" /><path
       style="fill:#ffffff;stroke-width:2.53638"
       d="m 196.02298,169.20376 v -61.70387 l -20.04302,5.4286 v 66.30679 z m -17.17973,-53.39813 14.31643,-3.71993 v 54.6582 l -14.31643,6.76457 z"
       id="path17"
       sodipodi:nodetypes="cccccccccc" /><path
       style="fill:#ffffff;stroke-width:1.57406"
       d="m 192.2611,151.637 v -38.29293 l -12.43856,3.36894 v 41.14946 z m -10.66162,-33.13846 8.88468,-2.30856 v 33.92043 l -8.88468,4.19806 z"
       id="path18"
       sodipodi:nodetypes="cccccccccc" /><path
       style="fill:#ffffff;stroke-width:0.979653"
       d="M 189.96793,141.04795 V 117.2154 l -7.74143,2.09675 v 25.6104 z m -6.63552,-20.62453 5.52961,-1.43679 v 21.11122 l -5.52961,2.61277 z"
       id="path19"
       sodipodi:nodetypes="cccccccccc" /><path
       style="fill:#ffffff;stroke-width:0.616916"
       d="m 188.57566,134.7637 v -15.00801 l -4.87499,1.32038 v 16.12757 z m -4.17855,-12.98783 3.48214,-0.90479 v 13.29431 l -3.48214,1.64535 z"
       id="path20"
       sodipodi:nodetypes="cccccccccc" /><path
       style="fill:#ffffff;stroke-width:1.58681"
       d="m 64.379465,170.5124 7.65964,-0.0261 v 8.53628 l -0.11138,8.06538 0.96843,2.46122 8.68908,5.82147 -0.0547,51.34297 -17.15107,-0.0152 z m 15.66312,25.88912 -8.91023,-6.36664 -0.75023,-1.37178 -0.041,-15.40195 h -4.13434 l -0.23726,71.16669 14.06845,-0.0347 z"
       id="path21"
       sodipodi:nodetypes="ccccccccccccccccc" /><path
       style="fill:#ffffff;stroke-width:0.963179"
       d="m 66.304255,174.66782 3.83145,5.1e-4 -0.17128,14.24314 0.97554,1.67188 6.0453,4.42331 -0.27046,25.91527 -10.41055,-0.0102 z m 9.556,21.03132 -5.53646,-4.35275 -1.10562,-1.74622 0.003,-13.74798 -2.07474,0.0101 0.12292,43.67207 8.53942,-0.0203 z"
       id="path22"
       sodipodi:nodetypes="cccccccccccccccc" /><path
       style="fill:#ffffff;stroke-width:0.584952"
       d="m 67.310875,181.28638 1.72922,0.005 -0.01,8.41454 1.10626,1.75981 3.11566,2.4452 -0.1223,15.51852 -5.77723,-0.0152 z m 5.3002,12.82507 -2.8381,-2.21358 -1.24817,-1.96229 -0.0296,-7.99284 -0.62039,0.005 -0.009,26.59611 4.71426,0.0292 z"
       id="path23"
       sodipodi:nodetypes="cccccccccccccccc" /><path
       style="fill:#ffffff;stroke-width:2.53638"
       d="m 151.0175,165.42123 h -15.74809 v 10.34647 10.34647 l -15.39019,10.44534 -0.37335,61.20281 h 31.51156 z m -27.91708,32.95986 14.84254,-9.95826 0.90556,-2.35984 v -8.53132 -8.53133 h 8.58988 v 85.89869 h -24.33798 z"
       id="path24"
       sodipodi:nodetypes="ccccccccccccccccc" /><path
       style="fill:#ffffff;stroke-width:1.58681"
       d="m 146.92085,169.67354 -7.65966,-0.0261 v 8.53628 l 0.11134,8.06538 -0.96841,2.46123 -8.68907,5.82147 0.0548,51.34296 17.15107,-0.0152 z m -15.66313,25.88912 8.91022,-6.36664 0.75024,-1.37177 0.0408,-15.40196 h 4.13435 l 0.23715,71.16669 -14.06845,-0.0347 z"
       id="path25"
       sodipodi:nodetypes="ccccccccccccccccc" /><path
       style="fill:#ffffff;stroke-width:0.963179"
       d="m 144.99604,173.82897 -3.83145,5.1e-4 0.1712,14.24313 -0.97554,1.67188 -6.04528,4.42332 0.27045,25.91526 10.41054,-0.0101 z m -9.55601,21.03132 5.53648,-4.35276 1.10561,-1.74622 -0.003,-13.74798 2.07473,0.0102 -0.12302,43.67207 -8.5394,-0.0203 z"
       id="path26"
       sodipodi:nodetypes="cccccccccccccccc" /><path
       style="fill:#ffffff;stroke-width:0.584952"
       d="m 143.98943,180.44752 -1.72923,0.005 0.0101,8.41454 -1.10624,1.75982 -3.11567,2.44519 0.12226,15.51853 5.77721,-0.0152 z m -5.3002,12.82507 2.83808,-2.21357 1.24818,-1.9623 0.0297,-7.99284 0.6204,0.005 0.0101,26.59611 -4.71426,0.0292 z"
       id="path27"
       sodipodi:nodetypes="cccccccccccccccc" /></g></svg>
