<?xml version="1.0" encoding="UTF-8" standalone="no"?>
<!-- Created with Inkscape (http://www.inkscape.org/) -->

<svg
   width="210mm"
   height="297mm"
   viewBox="0 0 210 297"
   version="1.1"
   id="svg1"
   xml:space="preserve"
   inkscape:export-filename="bitmap.svg"
   inkscape:export-xdpi="96"
   inkscape:export-ydpi="96"
   inkscape:version="1.3.1 (91b66b0783, 2023-11-16)"
   sodipodi:docname="company-icon.svg"
   xmlns:inkscape="http://www.inkscape.org/namespaces/inkscape"
   xmlns:sodipodi="http://sodipodi.sourceforge.net/DTD/sodipodi-0.dtd"
   xmlns="http://www.w3.org/2000/svg"
   xmlns:svg="http://www.w3.org/2000/svg"><sodipodi:namedview
     id="namedview1"
     pagecolor="#d1d1d1"
     bordercolor="#000000"
     borderopacity="0.25"
     inkscape:showpageshadow="2"
     inkscape:pageopacity="0.0"
     inkscape:pagecheckerboard="true"
     inkscape:deskcolor="#d1d1d1"
     inkscape:document-units="mm"
     showguides="true"
     inkscape:zoom="0.5"
     inkscape:cx="357"
     inkscape:cy="417"
     inkscape:window-width="1920"
     inkscape:window-height="1009"
     inkscape:window-x="3832"
     inkscape:window-y="-8"
     inkscape:window-maximized="1"
     inkscape:current-layer="layer1" /><defs
     id="defs1" /><g
     inkscape:label="Layer 1"
     inkscape:groupmode="layer"
     id="layer1"
     style="display:inline"><path
       fill="currentColor"
       d="M 91.919753,294.94005 H 52.531309 V 163.24481 h 19.503009 v 29.17029 l 19.885435,15.01411 z M 78.917737,2.3793163 65.91571,31.549613 H 0.52325322 V 60.719882 L 52.531309,75.305034 v 44.184376 l 26.386428,14.58513 13.002016,43.75541 h 26.003997 l 13.00202,-43.75541 26.38643,-14.58513 V 75.305034 L 209.32026,60.719882 V 31.549613 H 143.92778 L 130.92577,2.3793163 Z m 26.363713,57.4621907 6.28446,6.967946 -6.24268,6.853727 -6.284905,-6.784345 z m 13.0247,235.098543 H 157.3122 V 163.24481 h -19.88541 v 29.17029 l -19.12064,15.01411 z M 209.32026,89.89016 183.31623,97.611678 V 192.4151 l 26.00403,-14.58515 z m -208.79700678,0 26.00402778,7.721518 V 192.4151 L 0.52325322,177.82995 Z"
       id="path1"
       style="fill:#5a5a5a;fill-opacity:1;stroke:#000000;stroke-width:0.405026;stroke-opacity:1"
       sodipodi:nodetypes="cccccccccccccccccccccccccccccccccccccccccccccc" /><rect
       style="opacity:1;fill:#ffffff;fill-opacity:1;stroke:#000000;stroke-width:0.688726;stroke-opacity:1"
       id="rect27"
       width="8.3447676"
       height="8.3351135"
       x="29.570635"
       y="119.82686"
       transform="matrix(0.66167525,-0.74979054,0.66917974,0.74310058,0,0)" /></g><g
     inkscape:groupmode="layer"
     id="layer2"
     inkscape:label="Layer 2"
     style="display:inline"><path
       fill="currentColor"
       d="m -55.891136,227.00144 h -12.261906 v -36.54762 h 6.071427 v 8.09523 l 6.190479,4.16667 z m -4.047622,-81.19049 -4.047622,8.09524 h -20.357138 v 8.09525 l 16.190476,4.04762 v 12.2619 l 8.214284,4.04762 4.047622,12.14285 h 8.095235 l 4.047622,-12.14285 8.214281,-4.04762 v -12.2619 l 16.19048,-4.04762 v -8.09525 h -20.357148 l -4.047613,-8.09524 z m 15.005182,1.64591 4.157208,7.8392 20.060304,-0.0947 -0.09225,5.7647 -16.118392,4.25285 0.01069,11.92867 -8.026977,3.96922 -3.978234,11.89125 -5.81077,-0.008 -4.010986,-11.98284 -7.979391,-3.98753 0.01611,-12.09313 -16.401631,-4.16516 0.0082,-5.52776 20.165726,0.2973 3.96393,-8.13421 z m -2.743279,79.54458 h 12.142857 v -36.54762 h -6.19047 v 8.09523 l -5.952387,4.16667 z m 28.333337,-56.90477 -8.095235,2.14286 v 26.30952 l 8.095235,-4.04762 z m -65,0 8.095239,2.14286 v 26.30952 l -8.095239,-4.04762 z"
       id="path3"
       style="display:none;opacity:1;fill:#ffffff;fill-opacity:1;stroke-width:0.119048"
       sodipodi:nodetypes="cccccccccccccccccccccccccccccccccccccccccccccccccccccccccc" /><path
       style="fill:#ffffff;stroke-width:3.06161"
       d="M 92.785876,164.4127 92.094688,162.32842 86.934294,144.83131 81.773925,127.33424 69.689278,120.60432 57.604631,113.8744 V 94.059627 74.244826 L 37.413271,68.596449 17.22191,62.948086 14.162615,62.041164 11.103315,61.134242 V 48.357476 35.580707 H 40.476156 69.848993 L 75.747004,22.311089 81.645015,9.0414757 h 23.276745 23.27673 l 5.898,13.2696133 5.89803,13.269618 h 29.37282 29.37285 v 12.776769 12.776766 l -3.05929,0.906922 -3.05929,0.906922 -20.19135,5.648363 -20.19137,5.648377 -9.9e-4,19.790427 -0.001,19.790417 -12.0318,6.86361 -12.03182,6.86358 -5.78878,19.21807 -5.78875,19.21809 -11.55891,0.25389 -11.558862,0.2539 z m 26.372954,-21.62544 5.62741,-19.08361 11.67052,-6.52737 11.67055,-6.52736 0.22027,-19.363521 0.22026,-19.363512 13.053,-3.890156 13.05301,-3.890144 9.99369,-2.958586 9.99369,-2.958585 V 48.732857 39.241288 H 165.7693 136.87736 L 130.89332,26.658034 124.90926,14.074777 104.72142,13.830023 84.533584,13.585268 78.615435,26.989776 72.69716,40.394264 43.53187,39.764773 14.366565,39.135285 v 9.187024 9.18703 l 2.243486,0.62276 2.243483,0.622762 21.211128,6.046819 21.211126,6.046817 0.219344,19.681546 0.219343,19.681547 11.609934,6.49829 11.609923,6.49831 5.688877,19.33132 5.688869,19.33134 h 8.609652 8.60965 z"
       id="path9" /><path
       style="fill:#ffffff;stroke-width:3.06161"
       d="M 2.2010626,171.00746 V 92.121907 L 25.043809,99.062124 V 183.8323 Z M 21.780559,102.74042 5.4643094,97.984656 v 69.877994 l 16.3162496,8.64819 z"
       id="path5"
       sodipodi:nodetypes="cccccccccc" /><path
       style="fill:#ffffff;stroke-width:3.06161"
       d="m 53.170877,167.62736 h 17.947875 v 13.22748 13.22749 l 17.539959,13.35388 0.42551,78.24496 H 53.170956 Z M 84.987565,209.765 68.071734,197.03385 67.039691,194.01688 V 183.11 172.20309 h -9.789752 v 109.8175 h 27.737626 z"
       id="path8"
       sodipodi:nodetypes="ccccccccccccccccc" /><path
       style="fill:#ffffff;stroke-width:2.3583"
       d="m 95.57366,140.44819 -0.532398,-1.60548 -3.974965,-13.47772 -3.974964,-13.47772 -9.30861,-5.18395 -9.308612,-5.18394 V 86.256363 70.993335 L 52.921035,66.642486 37.367942,62.291639 35.011415,61.593052 32.654888,60.894467 v -9.841746 -9.841738 h 22.625433 22.625431 l 4.543141,-10.221375 4.543154,-10.221376 h 17.929713 17.9297 l 4.54313,10.221376 4.54318,10.221375 h 22.62539 22.62545 v 9.841738 9.841746 l -2.35653,0.698585 -2.35654,0.698587 -15.55306,4.350847 -15.55307,4.350849 -9.9e-4,15.244252 -10e-4,15.244253 -9.26787,5.28693 -9.26795,5.2869 -4.459,14.80335 -4.459,14.8034 -8.90363,0.19585 -8.903622,0.19585 z m 20.31469,-16.65775 4.33474,-14.69975 8.98958,-5.02794 8.98963,-5.027904 0.16939,-14.915417 0.1694,-14.915421 10.05451,-2.996517 10.05454,-2.996515 7.69798,-2.278947 7.698,-2.278946 V 51.341874 44.030667 H 151.7911 129.53609 L 124.9267,34.33799 120.31726,24.645307 104.7669,24.456747 89.216509,24.268219 84.657843,34.593497 80.099101,44.918764 57.633533,44.433878 35.167963,43.948989 v 7.07662 7.076626 l 1.728123,0.479701 1.728117,0.479703 16.33859,4.657765 16.338593,4.657765 0.168958,15.160376 0.16897,15.160406 8.942944,5.005499 8.942945,5.00557 4.38204,14.89059 4.382053,14.89062 h 6.631884 6.63187 z"
       id="path10" /><path
       style="fill:#ffffff;stroke-width:1.65081"
       d="m 98.37811,116.48036 -0.372687,-1.12382 -2.782479,-9.43442 -2.782468,-9.434403 -6.51603,-3.628759 -6.51603,-3.628759 V 78.546081 67.861965 L 68.521271,64.81638 57.634104,61.770785 55.984533,61.281775 54.334964,60.792767 v -6.88923 -6.889212 h 15.837803 15.8378 l 3.180205,-7.15496 3.180186,-7.154964 h 12.550802 12.55078 l 3.18018,7.154964 3.18024,7.15496 h 15.83777 15.8378 v 6.889212 6.88923 l -1.64955,0.489008 -1.64958,0.48901 -10.88713,3.045595 -10.88715,3.045585 -7.5e-4,10.670974 -8.1e-4,10.670979 -6.48753,3.700847 -6.48757,3.700837 -3.12129,10.362338 -3.12129,10.36238 -6.23256,0.13711 -6.232514,0.13709 z m 14.22027,-11.66042 3.03431,-10.289831 6.2927,-3.519556 6.29273,-3.519534 0.11851,-10.440793 0.11851,-10.440776 7.0382,-2.097571 7.03817,-2.097559 5.38858,-1.595268 5.38858,-1.595267 V 54.105954 48.988103 H 137.73016 122.15165 L 118.92511,42.203231 115.69848,35.41835 104.81324,35.286376 93.927983,35.154401 90.736916,42.382094 87.545799,49.60978 71.819898,49.270361 56.094,48.93094 v 4.953637 4.953626 l 1.209686,0.335799 1.209685,0.335785 11.437021,3.260441 11.437008,3.260441 0.118254,10.612267 0.118289,10.612281 6.260062,3.503854 6.260061,3.503887 3.067424,10.423412 3.06743,10.42343 h 4.64232 4.6423 z"
       id="path11" /><path
       style="fill:#ffffff;stroke-width:0.943324"
       d="m 101.18262,92.30314 -0.21305,-0.642171 -1.589985,-5.3911 -1.589977,-5.391095 -3.723445,-2.073576 -3.723457,-2.073576 v -6.105204 -6.10522 l -6.221222,-1.740333 -6.221237,-1.740333 -0.942611,-0.279458 -0.942612,-0.279419 v -3.936692 -3.936692 h 9.050177 9.050178 l 1.817246,-4.088557 1.817266,-4.08855 h 7.171909 7.17188 l 1.81721,4.08855 1.81728,4.088557 h 9.05016 9.05019 v 3.936692 3.936692 l -0.94263,0.279419 -0.94258,0.279458 -6.22124,1.740333 -6.22121,1.740333 -4.3e-4,6.097714 -4.6e-4,6.097701 -3.70716,2.114767 -3.70719,2.114754 -1.78358,5.921355 -1.78361,5.921355 -3.56145,0.0784 -3.56146,0.0784 z m 8.12589,-6.663083 1.73388,-5.879917 3.59585,-2.011174 3.59584,-2.011162 0.0676,-5.966161 0.0676,-5.966161 4.0218,-1.198615 4.02183,-1.1986 3.07918,-0.911589 3.07919,-0.911577 v -2.924477 -2.924489 h -8.902 -8.90199 l -1.84374,-3.877066 -1.84379,-3.877076 -6.22012,-0.07543 -6.220194,-0.07543 -1.823456,4.130115 -1.823498,4.130103 -8.986227,-0.193942 -8.986227,-0.19394 v 2.830637 2.830649 l 0.691253,0.191872 0.691242,0.191869 6.535438,1.863104 6.535435,1.863105 0.06757,6.064153 0.06757,6.064154 3.577177,2.002214 3.577168,2.002224 1.752839,5.956234 1.75282,5.956261 h 2.65276 2.65275 z"
       id="path12" /><path
       style="fill:#ffffff;stroke-width:1.90001"
       d="M 6.4884409,148.54918 V 99.593422 l 14.1760171,4.307038 v 52.60767 z M 18.639312,106.18317 8.513584,103.23179 v 43.36573 l 10.125728,5.36699 z"
       id="path14"
       sodipodi:nodetypes="cccccccccc" /><path
       style="fill:#ffffff;stroke-width:1.18252"
       d="m 9.101913,135.01159 v -30.46885 l 8.822802,2.68058 v 32.74172 z m 7.562399,-26.36755 -6.302,-1.83687 v 26.98974 l 6.302,3.3403 z"
       id="path15"
       sodipodi:nodetypes="cccccccccc" /><path
       style="fill:#ffffff;stroke-width:0.744665"
       d="m 10.688662,126.97744 v -19.18706 l 5.555961,1.68803 v 20.61839 z m 4.762251,-16.60436 -3.968544,-1.15672 v 16.99617 l 3.968544,2.10349 z"
       id="path16"
       sodipodi:nodetypes="cccccccccc" /><path
       style="fill:#ffffff;stroke-width:3.06161"
       d="M 207.87203,171.3907 V 92.505148 l -22.84274,6.940218 v 84.770184 z m -19.57948,-68.26704 16.31622,-4.755762 v 69.877992 l -16.31622,8.6482 z"
       id="path17"
       sodipodi:nodetypes="cccccccccc" /><path
       style="fill:#ffffff;stroke-width:1.90001"
       d="M 203.58467,148.93241 V 99.976663 l -14.17605,4.307047 v 52.60768 z m -12.15089,-42.36598 10.12575,-2.95139 v 43.3657 l -10.12575,5.36702 z"
       id="path18"
       sodipodi:nodetypes="cccccccccc" /><path
       style="fill:#ffffff;stroke-width:1.18252"
       d="m 200.97118,135.3948 v -30.46882 l -8.8228,2.68061 v 32.74171 z m -7.56242,-26.36751 6.30203,-1.83687 v 26.98973 l -6.30203,3.34031 z"
       id="path19"
       sodipodi:nodetypes="cccccccccc" /><path
       style="fill:#ffffff;stroke-width:0.744665"
       d="m 199.38443,127.36067 v -19.18704 l -5.55595,1.68804 v 20.61836 z m -4.76223,-16.60434 3.96853,-1.15672 v 16.99615 l -3.96853,2.10352 z"
       id="path20"
       sodipodi:nodetypes="cccccccccc" /><path
       style="fill:#ffffff;stroke-width:1.91541"
       d="m 57.839782,173.06374 8.729583,-0.0333 v 10.91324 l -0.126938,10.31122 1.103706,3.14656 9.902822,7.44248 -0.06234,65.6396 -19.546832,-0.0194 z m 17.851035,33.09806 -10.154861,-8.13947 -0.855027,-1.75376 -0.04674,-19.69067 h -4.711848 l -0.270403,90.98332 16.033614,-0.0443 z"
       id="path21"
       sodipodi:nodetypes="ccccccccccccccccc" /><path
       style="fill:#ffffff;stroke-width:1.16263"
       d="m 60.033438,178.37626 4.366649,6.5e-4 -0.195204,18.2092 1.111808,2.13742 6.889742,5.655 -0.308238,33.13146 -11.864757,-0.013 z m 10.890838,26.88758 -6.309826,-5.5648 -1.260059,-2.23247 0.0034,-17.57615 -2.364552,0.0129 0.140091,55.83273 9.732256,-0.026 z"
       id="path22"
       sodipodi:nodetypes="cccccccccccccccc" /><path
       style="fill:#ffffff;stroke-width:0.706082"
       d="m 61.180669,186.83778 1.970768,0.007 -0.0114,10.7576 1.260789,2.24983 3.550875,3.12608 -0.139385,19.83972 -6.584226,-0.0194 z m 6.040562,16.39627 -3.234541,-2.82997 -1.422522,-2.50869 -0.03374,-10.21849 -0.707049,0.007 -0.01026,34.00188 5.372775,0.0374 z"
       id="path23"
       sodipodi:nodetypes="cccccccccccccccc" /><path
       style="fill:#ffffff;stroke-width:3.06161"
       d="m 156.57993,166.55491 h -17.94787 v 13.22749 13.22749 l -17.53999,13.35388 -0.42549,78.24498 h 35.91327 z m -31.8167,42.13767 16.91583,-12.73116 1.03205,-3.01696 v -10.9069 -10.90692 h 9.78977 v 109.81751 h -27.73765 z"
       id="path24"
       sodipodi:nodetypes="ccccccccccccccccc" /><path
       style="fill:#ffffff;stroke-width:1.91541"
       d="m 151.91103,171.9913 -8.7296,-0.0333 v 10.91324 l 0.12689,10.31122 -1.10368,3.14655 -9.90281,7.44249 0.0624,65.63962 19.54683,-0.0195 z m -17.85105,33.09805 10.15486,-8.13946 0.85503,-1.75374 0.0465,-19.6907 h 4.71185 l 0.27028,90.98334 -16.03361,-0.0444 z"
       id="path25"
       sodipodi:nodetypes="ccccccccccccccccc" /><path
       style="fill:#ffffff;stroke-width:1.16263"
       d="m 149.71735,177.30382 -4.36665,6.6e-4 0.19512,18.20917 -1.11181,2.13745 -6.88972,5.655 0.30823,33.13147 11.86474,-0.0129 z m -10.89085,26.88757 6.30985,-5.5648 1.26006,-2.23246 -0.003,-17.57615 2.36454,0.013 -0.14021,55.83274 -9.73224,-0.0259 z"
       id="path26"
       sodipodi:nodetypes="cccccccccccccccc" /><path
       style="fill:#ffffff;stroke-width:0.706082"
       d="m 148.57014,185.76534 -1.97078,0.007 0.0115,10.75761 -1.26078,2.24986 -3.55088,3.12605 0.13934,19.83973 6.58421,-0.0195 z m -6.04056,16.39625 3.23451,-2.82993 1.42253,-2.50872 0.0339,-10.21848 0.70706,0.007 0.0115,34.0019 -5.37277,0.0374 z"
       id="path27"
       sodipodi:nodetypes="cccccccccccccccc" /></g></svg>
